<svg width="32" height="32" viewBox="0 0 32 32" fill="none" xmlns="http://www.w3.org/2000/svg">
<path fill-rule="evenodd" clip-rule="evenodd" d="M20.8685 13.9999C22.7094 13.9999 24.2018 12.5075 24.2018 10.6666C24.2018 8.82564 22.7094 7.33325 20.8685 7.33325C19.0275 7.33325 17.5352 8.82564 17.5352 10.6666C17.5352 12.5075 19.0275 13.9999 20.8685 13.9999ZM20.8685 15.9999C23.814 15.9999 26.2018 13.6121 26.2018 10.6666C26.2018 7.72107 23.814 5.33325 20.8685 5.33325C17.923 5.33325 15.5352 7.72107 15.5352 10.6666C15.5352 13.6121 17.923 15.9999 20.8685 15.9999Z" fill="#242424"/>
<path fill-rule="evenodd" clip-rule="evenodd" d="M10.2018 14.0001C11.6746 14.0001 12.8685 12.8062 12.8685 11.3334C12.8685 9.86066 11.6746 8.66675 10.2018 8.66675C8.72906 8.66675 7.53516 9.86066 7.53516 11.3334C7.53516 12.8062 8.72906 14.0001 10.2018 14.0001ZM10.2018 16.0001C12.7792 16.0001 14.8685 13.9107 14.8685 11.3334C14.8685 8.75609 12.7792 6.66675 10.2018 6.66675C7.62449 6.66675 5.53516 8.75609 5.53516 11.3334C5.53516 13.9107 7.62449 16.0001 10.2018 16.0001Z" fill="#242424"/>
<path fill-rule="evenodd" clip-rule="evenodd" d="M10.2027 16.3333C7.55123 16.3333 5.74593 17.2945 4.56376 18.608C3.41306 19.8867 2.92365 21.4184 2.71089 22.4823C2.42017 23.9361 3.62251 24.9999 4.86935 24.9999H13.3366C13.0779 24.7568 12.9383 24.4024 13.0064 24.0105C13.0593 23.7065 13.1324 23.3645 13.2337 22.9999H4.86935C4.77196 22.9999 4.71165 22.9608 4.68671 22.9336C4.67502 22.9209 4.67179 22.9121 4.67085 22.9089L4.67081 22.9087C4.67026 22.9069 4.66746 22.8975 4.67206 22.8745C4.84798 21.9948 5.23315 20.854 6.05038 19.9459C6.83613 19.0728 8.09209 18.3333 10.2027 18.3333C12.3133 18.3333 13.5692 19.0728 14.355 19.9459C14.4279 20.027 14.4974 20.1098 14.5636 20.1942C14.9442 19.6784 15.4103 19.1902 15.9811 18.768C15.9357 18.7143 15.8892 18.6609 15.8416 18.608C14.6594 17.2945 12.8541 16.3333 10.2027 16.3333Z" fill="#242424"/>
<path fill-rule="evenodd" clip-rule="evenodd" d="M14.0969 19.173C15.4672 17.5565 17.6164 16.3333 20.8688 16.3333C24.1212 16.3333 26.2705 17.5565 27.6408 19.173C28.9768 20.749 29.5039 22.6156 29.7167 23.8393C29.966 25.2737 28.7897 26.3333 27.5355 26.3333H14.2022C12.948 26.3333 11.7716 25.2737 12.021 23.8393C12.2337 22.6156 12.7609 20.749 14.0969 19.173ZM15.6225 20.4663C14.6099 21.6607 14.1738 23.1328 13.9914 24.1818C13.9867 24.2087 13.99 24.2225 13.992 24.2289C13.9944 24.2368 14.0001 24.249 14.0138 24.2637C14.0422 24.2944 14.1047 24.3333 14.2022 24.3333H27.5355C27.6329 24.3333 27.6954 24.2944 27.7239 24.2637C27.7376 24.249 27.7432 24.2368 27.7457 24.2289C27.7476 24.2225 27.7509 24.2087 27.7462 24.1818C27.5638 23.1328 27.1277 21.6607 26.1152 20.4663C25.137 19.3123 23.5525 18.3333 20.8688 18.3333C18.1852 18.3333 16.6007 19.3123 15.6225 20.4663Z" fill="#242424"/>
</svg>
