<svg width="28" height="28" viewBox="0 0 28 28" fill="none" xmlns="http://www.w3.org/2000/svg">
<path d="M8.05875 4.375V3.5V4.375ZM6.3175 6.3L7.189 6.22475V6.2125L6.3175 6.3V6.3ZM12.25 4.375H13.125C13.125 4.14294 13.0328 3.92038 12.8687 3.75628C12.7046 3.59219 12.4821 3.5 12.25 3.5V4.375ZM11.067 6.9195L11.599 7.61425L11.067 6.9195ZM16.933 6.9195L16.401 7.61425L16.933 6.9195ZM15.75 4.375V3.5C15.5179 3.5 15.2954 3.59219 15.1313 3.75628C14.9672 3.92038 14.875 4.14294 14.875 4.375H15.75ZM21.6825 6.3L20.811 6.2125V6.22475L21.6825 6.3V6.3ZM21.175 12.25L20.3035 12.1747C20.2931 12.2955 20.3079 12.4172 20.3469 12.5319C20.386 12.6467 20.4485 12.7521 20.5304 12.8414C20.6123 12.9308 20.7119 13.0021 20.8229 13.0509C20.9339 13.0997 21.0538 13.125 21.175 13.125V12.25ZM24.4195 11.067L25.1142 11.599L24.4195 11.067ZM24.4195 16.933L25.1142 16.401L24.4195 16.933ZM21.175 15.75V14.875C21.0539 14.8751 20.9342 14.9002 20.8234 14.9489C20.7125 14.9977 20.613 15.0688 20.5311 15.158C20.4492 15.2471 20.3867 15.3523 20.3475 15.4669C20.3083 15.5814 20.2933 15.7029 20.3035 15.8235L21.175 15.75ZM21.6825 21.7L20.811 21.7752V21.7875L21.6825 21.7V21.7ZM15.75 23.625H14.875C14.875 23.8571 14.9672 24.0796 15.1313 24.2437C15.2954 24.4078 15.5179 24.5 15.75 24.5V23.625ZM16.933 21.0805L16.401 20.3858L16.933 21.0805ZM11.067 21.0805L11.599 20.3858L11.067 21.0805ZM12.25 23.625V24.5C12.4821 24.5 12.7046 24.4078 12.8687 24.2437C13.0328 24.0796 13.125 23.8571 13.125 23.625H12.25ZM8.05875 23.625V22.75V23.625ZM6.3175 21.7L7.189 21.7875V21.7752L6.3175 21.7V21.7ZM6.825 15.75L7.6965 15.8235C7.70667 15.7029 7.69169 15.5814 7.65252 15.4669C7.61334 15.3523 7.55082 15.2471 7.46891 15.158C7.387 15.0688 7.28748 14.9977 7.17664 14.9489C7.06581 14.9002 6.94607 14.8751 6.825 14.875V15.75ZM3.5805 16.933L2.88575 16.401L3.5805 16.933ZM3.5805 11.067L2.88575 11.599L3.5805 11.067ZM6.825 12.25V13.125C6.94623 13.125 7.06613 13.0997 7.17709 13.0509C7.28805 13.0021 7.38766 12.9308 7.4696 12.8414C7.55154 12.7521 7.61402 12.6467 7.65308 12.5319C7.69214 12.4172 7.70693 12.2955 7.6965 12.1747L6.825 12.25ZM8.05875 3.5C7.69182 3.49987 7.32893 3.57668 6.99351 3.72545C6.65809 3.87423 6.35759 4.09168 6.11139 4.36376C5.8652 4.63584 5.67878 4.95652 5.56417 5.3051C5.44956 5.65367 5.40931 6.02241 5.446 6.3875L7.18725 6.2125C7.17501 6.09075 7.18845 5.96779 7.22669 5.85156C7.26492 5.73533 7.32712 5.62841 7.40924 5.5377C7.49137 5.447 7.59161 5.37453 7.70349 5.32497C7.81536 5.27542 7.93639 5.24988 8.05875 5.25V3.5V3.5ZM12.25 3.5H8.05875V5.25H12.25V3.5ZM13.125 5.0435V4.375H11.375V5.0435H13.125ZM11.599 7.61425C12.2552 7.112 13.125 6.2615 13.125 5.0435H11.375C11.375 5.38475 11.1177 5.7785 10.535 6.22475L11.599 7.61425V7.61425ZM11.375 7.875L11.3767 7.8645C11.3819 7.84911 11.389 7.83442 11.3978 7.82075C11.4518 7.74034 11.52 7.67038 11.599 7.61425L10.535 6.22475C10.0555 6.59225 9.625 7.14875 9.625 7.875H11.375V7.875ZM14 8.75C13.1408 8.75 12.404 8.575 11.9175 8.33C11.7388 8.24884 11.5777 8.13351 11.4433 7.9905C11.4142 7.95802 11.3911 7.92071 11.375 7.88025V7.875H9.625C9.625 8.869 10.4072 9.53225 11.1335 9.8945C11.9122 10.2848 12.9273 10.5 14 10.5V8.75ZM16.625 7.875V7.88025C16.609 7.92132 16.5859 7.95924 16.5568 7.99225C16.4227 8.13444 16.2622 8.24916 16.0842 8.33C15.5925 8.575 14.8575 8.75 14 8.75V10.5C15.0727 10.5 16.0877 10.2848 16.8665 9.8945C17.5927 9.53225 18.375 8.869 18.375 7.875H16.625ZM16.401 7.6125C16.5147 7.7 16.5743 7.7735 16.6023 7.82075C16.6163 7.8435 16.6197 7.8575 16.6232 7.8645L16.625 7.875H18.375C18.375 7.14875 17.9445 6.59225 17.465 6.22475L16.401 7.61425V7.6125ZM14.875 5.04525C14.875 6.26325 15.7447 7.11375 16.401 7.616L17.465 6.2265C16.8822 5.78025 16.625 5.3865 16.625 5.04525H14.875ZM14.875 4.37675V5.04525H16.625V4.375H14.875V4.37675ZM19.9413 3.50175H15.75V5.25175H19.9413V3.5V3.50175ZM22.554 6.38925C22.591 6.02402 22.5509 5.65509 22.4364 5.30631C22.3219 4.95752 22.1355 4.63663 21.8893 4.36435C21.6431 4.09207 21.3425 3.87446 21.0069 3.72558C20.6714 3.5767 20.3083 3.49985 19.9413 3.5V5.25C20.0636 5.24988 20.1846 5.27542 20.2965 5.32497C20.4084 5.37453 20.5086 5.447 20.5908 5.5377C20.6729 5.62841 20.7351 5.73533 20.7733 5.85156C20.8116 5.96779 20.825 6.09075 20.8127 6.2125L22.554 6.3875V6.38925ZM22.0465 12.3253L22.554 6.37525L20.811 6.2265L20.3035 12.1765L22.0465 12.3253ZM22.5435 11.3767H21.175V13.1267H22.5435V11.3767V11.3767ZM23.7248 10.5367C23.2785 11.1195 22.8847 11.3767 22.5435 11.3767V13.1267C23.7615 13.1267 24.612 12.257 25.1142 11.6008L23.7248 10.5367V10.5367ZM25.375 9.62675C24.6488 9.62675 24.0923 10.0572 23.7248 10.5367L25.1142 11.6008C25.1704 11.5218 25.2403 11.4536 25.3207 11.3995C25.3344 11.3907 25.3491 11.3837 25.3645 11.3785L25.375 11.375V9.625V9.62675ZM28 14C28 12.9273 27.7848 11.9122 27.3945 11.1335C27.0323 10.4072 26.369 9.625 25.375 9.625V11.375H25.3803L25.3977 11.3802C25.4314 11.397 25.4626 11.4181 25.4905 11.4433C25.6333 11.5772 25.7486 11.7377 25.83 11.9158C26.075 12.4058 26.25 13.1408 26.25 14H28V14ZM25.375 18.375C26.369 18.375 27.0323 17.5927 27.3945 16.8665C27.7848 16.0877 28 15.0727 28 14H26.25C26.25 14.8592 26.075 15.596 25.83 16.0825C25.7488 16.2612 25.6335 16.4223 25.4905 16.5568C25.458 16.5857 25.4207 16.6088 25.3803 16.625H25.375V18.375ZM23.7248 17.465C24.0923 17.9445 24.6488 18.375 25.375 18.375V16.625L25.3645 16.6232C25.3491 16.6181 25.3344 16.611 25.3207 16.6023C25.2403 16.5482 25.1704 16.48 25.1142 16.401L23.7248 17.465V17.465ZM22.5435 16.625C22.8847 16.625 23.2785 16.8822 23.7248 17.465L25.1142 16.401C24.612 15.7447 23.7615 14.875 22.5435 14.875V16.625V16.625ZM21.175 16.625H22.5435V14.875H21.175V16.625ZM22.554 21.6265L22.0465 15.6765L20.3035 15.8235L20.811 21.7752L22.554 21.6265V21.6265ZM19.9413 24.5C20.3082 24.5001 20.6711 24.4233 21.0065 24.2745C21.3419 24.1258 21.6424 23.9083 21.8886 23.6362C22.1348 23.3642 22.3212 23.0435 22.4358 22.6949C22.5504 22.3463 22.5907 21.9776 22.554 21.6125L20.8127 21.7875C20.825 21.9092 20.8116 22.0322 20.7733 22.1484C20.7351 22.2647 20.6729 22.3716 20.5908 22.4623C20.5086 22.553 20.4084 22.6255 20.2965 22.675C20.1846 22.7246 20.0636 22.7501 19.9413 22.75V24.5V24.5ZM15.75 24.5H19.9413V22.75H15.75V24.5ZM16.625 23.625V22.9565H14.875V23.625H16.625ZM16.625 22.9565C16.625 22.6153 16.8822 22.2215 17.465 21.7752L16.401 20.3858C15.7447 20.888 14.875 21.7385 14.875 22.9565H16.625V22.9565ZM17.465 21.7752C17.9445 21.4077 18.375 20.8512 18.375 20.125H16.625L16.6232 20.1355C16.6181 20.1509 16.611 20.1656 16.6023 20.1793C16.5482 20.2597 16.48 20.3296 16.401 20.3858L17.465 21.7752V21.7752ZM18.375 20.125C18.375 19.131 17.5927 18.4677 16.8665 18.1055C16.0877 17.7152 15.0727 17.5 14 17.5V19.25C14.861 19.25 15.596 19.425 16.0825 19.67C16.3275 19.7925 16.478 19.915 16.5568 20.0095C16.5857 20.042 16.6088 20.0793 16.625 20.1197V20.125H18.375V20.125ZM14 17.5C12.9273 17.5 11.9122 17.7152 11.1335 18.1055C10.4072 18.4677 9.625 19.131 9.625 20.125H11.375V20.1197L11.3802 20.1023C11.3965 20.0683 11.4177 20.0371 11.4433 20.0095C11.5771 19.8666 11.7376 19.7513 11.9158 19.67C12.4075 19.425 13.1425 19.25 14 19.25V17.5ZM9.625 20.125C9.625 20.8512 10.0555 21.4077 10.535 21.7752L11.599 20.3858C11.52 20.3296 11.4518 20.2597 11.3978 20.1793C11.389 20.1656 11.3819 20.1509 11.3767 20.1355L11.375 20.125H9.625ZM10.535 21.7752C11.1177 22.2215 11.375 22.6153 11.375 22.9565H13.125C13.125 21.7385 12.2552 20.888 11.599 20.3858L10.535 21.7752V21.7752ZM11.375 22.9565V23.625H13.125V22.9565H11.375ZM8.05875 24.5H12.25V22.75H8.05875V24.5ZM5.446 21.6125C5.40931 21.9776 5.44956 22.3463 5.56417 22.6949C5.67878 23.0435 5.8652 23.3642 6.11139 23.6362C6.35759 23.9083 6.65809 24.1258 6.99351 24.2745C7.32893 24.4233 7.69182 24.5001 8.05875 24.5V22.75C7.93639 22.7501 7.81536 22.7246 7.70349 22.675C7.59161 22.6255 7.49137 22.553 7.40924 22.4623C7.32712 22.3716 7.26492 22.2647 7.22669 22.1484C7.18845 22.0322 7.17501 21.9092 7.18725 21.7875L5.446 21.6125ZM5.9535 15.6747L5.446 21.6265L7.189 21.7752L7.6965 15.8253L5.9535 15.6747V15.6747ZM5.4565 16.625H6.825V14.875H5.4565V16.625V16.625ZM4.27525 17.465C4.7215 16.8822 5.11525 16.625 5.4565 16.625V14.875C4.2385 14.875 3.388 15.7447 2.88575 16.401L4.27525 17.465ZM2.625 18.375C3.35125 18.375 3.90775 17.9445 4.27525 17.465L2.88575 16.401C2.82962 16.48 2.75966 16.5482 2.67925 16.6023C2.66559 16.611 2.6509 16.6181 2.6355 16.6232L2.625 16.625V18.375V18.375ZM0 14C0 15.0727 0.21525 16.0877 0.6055 16.8665C0.96775 17.5927 1.631 18.375 2.625 18.375V16.625H2.61975C2.57868 16.609 2.54076 16.5859 2.50775 16.5568C2.36556 16.4227 2.25084 16.2622 2.17 16.0842C1.925 15.5925 1.75 14.8575 1.75 14H0ZM2.625 9.625C1.631 9.625 0.96775 10.4072 0.6055 11.1335C0.21525 11.9122 0 12.9273 0 14H1.75C1.75 13.139 1.925 12.404 2.17 11.9175C2.25116 11.7388 2.36649 11.5777 2.5095 11.4433C2.54198 11.4142 2.57929 11.3911 2.61975 11.375H2.625V9.625V9.625ZM4.27525 10.535C3.90775 10.0555 3.35125 9.625 2.625 9.625V11.375L2.6355 11.3767C2.6509 11.3819 2.66559 11.389 2.67925 11.3978C2.7265 11.4258 2.79825 11.4852 2.88575 11.599L4.27525 10.535V10.535ZM5.4565 11.375C5.11525 11.375 4.7215 11.1177 4.27525 10.535L2.88575 11.599C3.388 12.2552 4.2385 13.125 5.4565 13.125V11.375V11.375ZM6.825 11.375H5.4565V13.125H6.825V11.375V11.375ZM5.446 6.3735L5.9535 12.3235L7.6965 12.1747L7.189 6.22475L5.446 6.3735V6.3735Z" fill="#242424"/>
</svg>
