<svg width="28" height="28" viewBox="0 0 28 28" fill="none" xmlns="http://www.w3.org/2000/svg">
<path fill-rule="evenodd" clip-rule="evenodd" d="M14 28C21.732 28 28 21.732 28 14C28 6.26801 21.732 0 14 0C6.26801 0 0 6.26801 0 14C0 21.732 6.26801 28 14 28ZM14 25.9001C20.5722 25.9001 25.9 20.5723 25.9 14.0001C25.9 7.42791 20.5722 2.1001 14 2.1001C7.42781 2.1001 2.1 7.42791 2.1 14.0001C2.1 20.5723 7.42781 25.9001 14 25.9001Z" fill="#242424"/>
<path fill-rule="evenodd" clip-rule="evenodd" d="M13.3 7.3501C13.8799 7.3501 14.35 7.8202 14.35 8.4001V14.7823L20.1099 17.9822C20.6168 18.2639 20.7995 18.9031 20.5179 19.41C20.2362 19.9169 19.597 20.0996 19.0901 19.818L12.7901 16.318C12.4567 16.1328 12.25 15.7814 12.25 15.4001V8.4001C12.25 7.8202 12.7201 7.3501 13.3 7.3501Z" fill="#242424"/>
</svg>
