<svg width="28" height="28" viewBox="0 0 28 28" fill="none" xmlns="http://www.w3.org/2000/svg">
<path d="M7.71137 2.625L7.10937 3.25413L3.25413 7.10937L2.625 7.71137L8.9145 14L4.5395 18.375L4.48437 18.6489L3.52713 23.4614L3.25413 24.7459L4.5395 24.4729L9.352 23.5156L9.625 23.4605L14 19.0855L20.2615 25.3479L20.8635 24.7187L24.7187 20.8635L25.3479 20.2615L19.0855 14L23.4062 9.67925C23.741 9.34578 24.0066 8.94951 24.1878 8.51316C24.369 8.07682 24.4623 7.60898 24.4623 7.1365C24.4623 6.66402 24.369 6.19618 24.1878 5.75984C24.0066 5.32349 23.741 4.92722 23.4062 4.59375C23.0734 4.25742 22.6775 3.99008 22.2412 3.80705C21.8048 3.62402 21.3367 3.52889 20.8635 3.52713C20.3902 3.52878 19.9219 3.62385 19.4854 3.80689C19.0489 3.98992 18.6528 4.25732 18.3199 4.59375L14 8.9145L7.71137 2.625ZM7.71137 5.1135L9.40625 6.8355L8.12087 8.12175L9.37912 9.37912L10.6645 8.09375L12.7417 10.1719L10.1447 12.7697L5.08638 7.71137L7.71137 5.1135ZM20.8626 5.22287C21.3176 5.22287 21.7796 5.42762 22.1751 5.824C22.9652 6.61412 22.9652 7.63262 22.1751 8.42187L21.602 8.99587L19.0032 6.398L19.5781 5.824C19.9745 5.42762 20.4094 5.22287 20.8635 5.22287H20.8626ZM17.7739 7.62912L20.3709 10.227L9.7895 20.8075C9.21032 19.6956 8.30301 18.7889 7.19075 18.2105L17.7739 7.62912ZM17.8552 15.2302L19.9334 17.3084L18.6209 18.6209L19.8791 19.8791L21.1916 18.5666L22.8594 20.2344L20.2344 22.8594L15.2302 17.8552L17.8552 15.2302ZM6.07075 19.6052C7.11987 20.0461 7.95426 20.8808 8.39475 21.9301L5.49587 22.5041L6.07075 19.6052Z" fill="#242424"/>
</svg>
