<svg width="32" height="32" viewBox="0 0 32 32" fill="none" xmlns="http://www.w3.org/2000/svg">
<path d="M19.31 12.6902C22.1106 15.4938 22.0722 19.9886 19.3268 22.7491C19.3217 22.7548 19.3156 22.7609 19.31 22.7665L16.16 25.9165C13.3817 28.6948 8.86157 28.6944 6.08371 25.9165C3.30543 23.1387 3.30543 18.618 6.08371 15.8402L7.82305 14.1009C8.2843 13.6396 9.07865 13.9462 9.10246 14.598C9.13284 15.4288 9.2818 16.2634 9.55668 17.0693C9.64977 17.3423 9.58326 17.6441 9.37935 17.848L8.7659 18.4615C7.45218 19.7752 7.41098 21.9143 8.71176 23.2409C10.0254 24.5805 12.1845 24.5885 13.5082 23.2648L16.6582 20.1152C17.9797 18.7938 17.9742 16.6579 16.6582 15.342C16.4848 15.1688 16.31 15.0343 16.1735 14.9403C16.0769 14.874 15.9972 14.786 15.9407 14.6834C15.8841 14.5808 15.8524 14.4664 15.8479 14.3494C15.8293 13.854 16.0048 13.3436 16.3962 12.9522L17.3831 11.9653C17.6419 11.7065 18.0479 11.6747 18.348 11.8841C18.6917 12.1241 19.0136 12.3938 19.31 12.6902ZM25.9163 6.08357C23.1384 3.30566 18.6183 3.30529 15.84 6.08357L12.69 9.23357C12.6844 9.2392 12.6783 9.24529 12.6732 9.25092C9.92788 12.0115 9.8894 16.5063 12.69 19.3098C12.9864 19.6062 13.3083 19.8759 13.652 20.1159C13.9521 20.3253 14.3581 20.2935 14.6168 20.0348L15.6037 19.0478C15.9951 18.6564 16.1706 18.146 16.1521 17.6506C16.1476 17.5336 16.1158 17.4192 16.0593 17.3166C16.0027 17.214 15.923 17.126 15.8264 17.0597C15.6899 16.9657 15.5152 16.8312 15.3417 16.6581C14.0258 15.3421 14.0203 13.2062 15.3417 11.8848L18.4917 8.73524C19.8154 7.41154 21.9745 7.41951 23.2882 8.75915C24.589 10.0857 24.5478 12.2248 23.2341 13.5385L22.6206 14.152C22.4167 14.3559 22.3502 14.6578 22.4433 14.9307C22.7181 15.7366 22.8671 16.5712 22.8975 17.402C22.9213 18.0538 23.7156 18.3604 24.1769 17.8991L25.9162 16.1598C28.6946 13.382 28.6946 8.86139 25.9163 6.08357Z" fill="#FF6C4B"/>
</svg>
