<svg width="28" height="28" viewBox="0 0 28 28" fill="none" xmlns="http://www.w3.org/2000/svg">
<path d="M13.988 2.33325C7.54801 2.33325 2.33301 7.55992 2.33301 13.9999C2.33301 20.4399 7.54801 25.6666 13.988 25.6666C20.4397 25.6666 25.6663 20.4399 25.6663 13.9999C25.6663 7.55992 20.4397 2.33325 13.988 2.33325ZM13.9997 23.3333C8.84301 23.3333 4.66634 19.1566 4.66634 13.9999C4.66634 8.84325 8.84301 4.66659 13.9997 4.66659C19.1563 4.66659 23.333 8.84325 23.333 13.9999C23.333 19.1566 19.1563 23.3333 13.9997 23.3333ZM13.743 8.16659H13.673C13.2063 8.16659 12.833 8.53992 12.833 9.00659V14.5133C12.833 14.9216 13.043 15.3066 13.4047 15.5166L18.2463 18.4216C18.643 18.6549 19.1563 18.5383 19.3897 18.1416C19.4483 18.0471 19.4872 17.9418 19.5043 17.832C19.5213 17.7221 19.5161 17.61 19.4888 17.5022C19.4616 17.3944 19.413 17.2932 19.3459 17.2047C19.2787 17.1161 19.1944 17.0419 19.098 16.9866L14.583 14.3033V9.00659C14.583 8.53992 14.2097 8.16659 13.743 8.16659V8.16659Z" fill="#242424"/>
</svg>
